<?xml version="1.0" encoding="utf-8"?>
<!-- Generator: Adobe Illustrator 28.0.0, SVG Export Plug-In . SVG Version: 6.00 Build 0)  -->
<svg version="1.1" id="Capa_1" xmlns="http://www.w3.org/2000/svg" xmlns:xlink="http://www.w3.org/1999/xlink" x="0px" y="0px"
	 viewBox="0 0 256 256" style="enable-background:new 0 0 256 256;" xml:space="preserve">
<style type="text/css">
	.st0{fill:#FFFFFF;}
</style>
<path class="st0" d="M218.1,218.1h-37.9v-59.4c0-14.2-0.3-32.4-19.7-32.4c-19.8,0-22.8,15.4-22.8,31.4v60.4H99.8V96h36.4v16.7h0.5
	c7.4-12.7,21.2-20.3,35.9-19.7c38.4,0,45.5,25.3,45.5,58.2L218.1,218.1L218.1,218.1z M57,79.3c-12.2,0-22-9.9-22-22s9.9-22,22-22
	c12.2,0,22,9.9,22,22C79,69.4,69.1,79.3,57,79.3 M75.9,218.1H38V96h38L75.9,218.1L75.9,218.1z M237,0H18.9C8.6-0.1,0.1,8.2,0,18.5
	v219.1c0.1,10.3,8.6,18.6,18.9,18.5H237c10.3,0.1,18.8-8.1,19-18.5V18.5C255.9,8.1,247.4-0.1,237,0"/>
</svg>
